<?xml version="1.0" encoding="utf-8"?>
<!-- Generator: Adobe Illustrator 22.1.0, SVG Export Plug-In . SVG Version: 6.00 Build 0)  -->
<svg version="1.1" id="Layer_1" xmlns="http://www.w3.org/2000/svg" xmlns:xlink="http://www.w3.org/1999/xlink" x="0px" y="0px"
	 viewBox="0 0 108 133" style="enable-background:new 0 0 108 133;" xml:space="preserve">
<style type="text/css">
	.st0{fill:#FFFFFF;}
	.st1{fill:#FFFFFF;fill-opacity:0.3;}
</style>
<g>
	<path class="st0" d="M60.8,64h-0.1c-12.8,0-30-5.4-53.2-20.8c-0.1-0.1-0.8-0.5-0.9-0.8c0-0.1,0-0.2,0.2-0.3c0.1,0,0.3,0,0.4,0
		c0.6,0.1,1.8,0.4,3.4,0.8c6.9,1.5,23.9,3.3,35.5,1.7c3-0.4,5.5-0.9,8.2-2c1.8-0.7,1.8-1.4,1.6-1.7c-0.1-0.2-0.3-0.5-2.7,0
		c-2.6,0.5-6.5,0.6-12-0.2c-10.3-1.5-18.4-6.4-19.2-7c0,0-1.8-1-1.6-1.5c0.1-0.2,0.5-0.1,0.6-0.1l0.7,0.1c11,0.3,21.3-4,36.6-13.3
		c7.7-4.7,15.7-4,19.6-0.5c0,0,6.9,5.1,0.5,14.5c-1.5,2.3,0.1,3,6.2-3.6s12.9-10.5,20.3-4.8l2.1,1.4c0,0,0.4,0.3,0.5,0.5
		c0,0.4-0.5,0.4-1,0.6c-3.2,1-5.4,2.8-9.9,11.1C93.5,43.7,85.6,63.9,60.8,64z"/>
	<g transform="translate(1 1)">
		<circle class="st1" cx="35.9" cy="38.8" r="36"/>
		<path class="st0" d="M35.9,75.3c-20.1,0-36.5-16.4-36.5-36.5S15.8,2.3,35.9,2.3c20.1,0,36.5,16.4,36.5,36.5S56,75.3,35.9,75.3z
			 M35.9,3.3C16.3,3.3,0.4,19.2,0.4,38.8s15.9,35.5,35.5,35.5s35.5-15.9,35.5-35.5S55.5,3.3,35.9,3.3z"/>
	</g>
</g>
<g id="Text_3_">
	<g>
		<g>
			<path class="st0" d="M10.6,99.8H8.5c-1.5,0-2.3-0.8-2.2-2.3H3.1c-1.6,0-2.4-1-2.4-3c0-1.3,0.3-2.4,1-3c0.6-0.6,1.2-0.9,2-0.9
				c1,0,1.9,0.5,2.3,1.2h0v-1h1.5v6.7c0,0.7,0.3,1.1,0.9,1.1h2.1V99.8z M6.2,96.1l0-3.1c-0.5-0.9-1.2-1.3-2-1.3
				c-0.5,0-1,0.2-1.3,0.7c-0.4,0.5-0.6,1.2-0.6,2.1c0,0.5,0.1,0.8,0.2,1.1c0.2,0.4,0.5,0.6,1,0.6H6.2z M3.9,88.8H2.3v-1.7h1.6V88.8z
				 M6.4,88.8H4.9v-1.7h1.6V88.8z"/>
			<path class="st0" d="M19.3,99.8h-1.9c-0.6,0-1.2-0.3-1.6-0.8c-0.3-0.3-0.4-0.6-0.5-0.9c-0.4,1-1.5,1.7-2.6,1.7H9.9v-1.4h2.4
				c0.4,0,0.8-0.1,1.1-0.3c0.4-0.3,0.7-0.7,0.7-1.2c0,0.3,0-1.3,0-4.9h1.5c0,1.4,0,2.7,0,4c0,0.7,0.2,1.3,0.7,1.8
				c0.4,0.4,0.8,0.6,1.2,0.6h2v0.4v0.7V99.8z M14.3,102.9h-1.6v-1.6h1.6V102.9z M16.9,102.9h-1.6v-1.6h1.6V102.9z"/>
			<path class="st0" d="M32.2,99.8H28c-0.8,0-1.6-0.3-2.2-1c-1.2,0.7-2.5,1-3.6,1h-3.5v-1.4h3.5c0.9,0,1.9-0.2,2.8-0.7
				c-0.8-1-1.6-1.8-2.2-2.3c-0.9-0.7-1.9-1.1-2.9-1.2v-1.7c1.2-1.2,3-1.8,5.4-1.8c1.5,0,2.9,0.4,4.2,1.1c0.8,0.4,1.4,0.8,1.7,1.3
				c-1,2-2.5,3.6-4.4,5c0.2,0.2,0.5,0.3,0.9,0.3h0.6h3.8V99.8z M29.6,93.4c-0.4-0.2-0.7-0.5-1.1-0.7c-0.9-0.4-1.9-0.6-3-0.6
				c-1,0-1.8,0.1-2.5,0.3c-0.5,0.1-1.1,0.4-1.7,0.8c1.7,0.4,3.3,1.8,4.9,3.9C27.5,96.1,28.7,94.9,29.6,93.4z"/>
			<path class="st0" d="M40.7,99.8h-1.9c-0.6,0-1.2-0.3-1.6-0.8c-0.3-0.3-0.4-0.6-0.5-0.9c-0.4,1-1.5,1.7-2.6,1.7h-2.8v-1.4h2.4
				c0.4,0,0.8-0.1,1.1-0.3c0.4-0.3,0.7-0.7,0.7-1.2c0,0.3,0-1.3,0-4.9h1.5c0,1.4,0,2.7,0,4c0,0.7,0.2,1.3,0.7,1.8
				c0.4,0.4,0.8,0.6,1.2,0.6h2v0.4v0.7V99.8z M35.8,102.9h-1.6v-1.6h1.6V102.9z M38.4,102.9h-1.6v-1.6h1.6V102.9z"/>
			<path class="st0" d="M49.3,99.8h-1.9c-0.6,0-1.2-0.3-1.6-0.8c-0.3-0.3-0.4-0.6-0.5-0.9c-0.4,1-1.5,1.7-2.6,1.7h-2.4v-1.4h1.9
				c0.4,0,0.7-0.1,1.1-0.3c0.4-0.3,0.7-0.7,0.7-1.2c0,0.3,0-1.3,0-4.9h1.5c0,1.4,0,2.7,0,4c0,0.7,0.2,1.3,0.7,1.8
				c0.4,0.4,0.8,0.6,1.2,0.6h2v0.4v0.7V99.8z M45.5,102.9H44v-1.6h1.6V102.9z"/>
			<path class="st0" d="M63.4,99.8H48.8v-1.4h2.4l-0.1-11.2h1.5l-0.2,9.4c0.8-1.8,2-3.1,3.4-3.9c1.1-0.6,2.1-0.8,3-0.7
				c1.8,0.2,3.1,1.1,3.8,2.8C63.1,96,63.4,97.6,63.4,99.8z M61.9,98.4c0-1-0.1-1.8-0.4-2.5c-0.5-1.7-1.4-2.5-2.7-2.6
				c-2.6-0.2-4.6,1.5-6.2,5.1H61.9z"/>
			<path class="st0" d="M77.2,97.8c0,1.8-0.5,3.3-1.5,4.6c-1,1.2-2.3,1.9-4,2c-0.1-0.3-0.4-0.7-0.6-1.3c1.4,0,2.5-0.5,3.3-1.4
				s1.3-2.2,1.3-3.6l0-6h1.5L77.2,97.8z"/>
			<path class="st0" d="M90.3,99.8H87c-0.7,2.6-2.6,4.4-5.3,4.6c-0.1-0.3-0.3-0.7-0.6-1.3c1.1,0,2-0.3,2.8-0.9
				c0.7-0.6,1.3-1.4,1.6-2.4h-1.9c-1,0-1.8-0.4-2.4-1.1S80.4,97,80.4,96c0-1.4,0.5-2.4,1.3-3.1c0.7-0.6,1.4-0.8,2.3-0.8
				c2.2,0,3.3,1.1,3.3,3.3v3.1h3V99.8z M85.8,98.4v-3.5c0-1.2-0.6-1.9-1.7-1.9c-0.6,0-1,0.2-1.4,0.7C82.2,94.2,82,95,82,95.9
				c0,1.4,0.8,2.5,2,2.5H85.8z"/>
			<path class="st0" d="M105.2,99.8H89.6v-1.4h3.7V94h1.3v1.9c0.7-1.4,1.8-2.4,3-3.1c1.1-0.6,2.1-0.9,3.1-0.8
				c1.8,0.2,3.1,1.1,3.8,2.8C105,96,105.2,97.6,105.2,99.8z M103.8,98.4c0-1-0.1-1.8-0.4-2.5c-0.5-1.7-1.4-2.5-2.7-2.6
				c-2.6-0.2-4.6,1.5-6.1,4.9v0.2H103.8z"/>
			<path class="st0" d="M15.8,122.9H14c-0.8,0-1.5-0.4-2-1.3c0,1.6-0.6,3-1.7,4.2c-1.1,1.2-2.4,1.7-3.9,1.7c-1.5,0-2.9-0.6-4-1.8
				c-1.1-1.2-1.7-2.6-1.7-4.2c0-1.1,0-2.6,0-4.3h1.4c0,2.7,0,4.2,0,4.4c0,1.2,0.4,2.3,1.2,3.2c0.8,0.9,1.8,1.3,3,1.3
				c1.2,0,2.1-0.4,3-1.3c0.8-0.9,1.2-1.9,1.2-3.2l-0.1-12.5h1.5c0,2.4,0,5.8,0.1,10.5c0,0.7,0.2,1.2,0.7,1.6
				c0.4,0.3,0.8,0.5,1.2,0.5h2v0.4v0.7V122.9z"/>
			<path class="st0" d="M18.3,122.9h-2.9v-1.4h2.9V122.9z"/>
			<path class="st0" d="M20.8,122.9h-2.9v-1.4h2.9V122.9z"/>
			<path class="st0" d="M23.3,122.9h-2.9v-1.4h2.9V122.9z"/>
			<path class="st0" d="M28.2,120.1c0,1.7-1,2.8-2.9,2.8h-2.8v-1.4h2.8c0.8,0,1.4-0.5,1.4-1.4c0,0.2,0-1.4-0.1-4.9h1.5
				C28.2,118.5,28.2,120.1,28.2,120.1z M24.8,126h-1.6v-1.6h1.6V126z M27.4,126h-1.6v-1.6h1.6V126z"/>
			<path class="st0" d="M42.3,122.9H31.1l0.4-1.4h5.8c0-1.4-0.4-2.6-1-3.6c-0.6-1-1.2-1.4-1.9-1.4v-1.3c1.1,0,2,0.5,2.8,1.6
				c0.9,1.2,1.4,2.8,1.6,4.8h3.6V122.9z"/>
			<path class="st0" d="M44.8,122.9h-2.9v-1.4h2.9V122.9z"/>
			<path class="st0" d="M47.3,122.9h-2.9v-1.4h2.9V122.9z"/>
			<path class="st0" d="M60.3,122.9h-4.2c-0.8,0-1.6-0.3-2.2-1c-1.2,0.7-2.5,1-3.6,1h-3.5v-1.4h3.5c0.9,0,1.9-0.2,2.8-0.7
				c-0.8-1-1.6-1.8-2.2-2.3c-0.9-0.7-1.9-1.1-2.9-1.2v-1.7c1.2-1.2,3-1.8,5.4-1.8c1.5,0,2.9,0.4,4.2,1.1c0.8,0.4,1.4,0.8,1.7,1.3
				c-1,2-2.5,3.6-4.4,5c0.2,0.2,0.5,0.3,0.9,0.3h0.6h3.8V122.9z M57.7,116.5c-0.4-0.2-0.7-0.5-1.1-0.7c-0.9-0.4-1.9-0.6-3-0.6
				c-1,0-1.8,0.1-2.5,0.3c-0.5,0.1-1.1,0.4-1.7,0.8c1.7,0.4,3.3,1.8,4.9,3.9C55.6,119.2,56.8,118,57.7,116.5z"/>
			<path class="st0" d="M65.1,120.1c0,1.7-1,2.8-2.9,2.8h-2.4v-1.4h2.3c0.8,0,1.4-0.5,1.4-1.4c0,0.2,0-1.4-0.1-4.9H65
				C65,118.5,65.1,120.1,65.1,120.1z M62.5,113.4h-1.6v-1.6h1.6V113.4z M65.1,113.4h-1.6v-1.6h1.6V113.4z"/>
			<path class="st0" d="M86.7,121.5c0,1.7-0.6,3-1.7,4.2c-1.1,1.2-2.4,1.8-4,1.8s-2.9-0.6-4-1.8c-1.1-1.2-1.7-2.6-1.7-4.2
				c0-1.1-0.1-2.5-0.1-4.3h1.5c0,0.2,0,1.7,0.1,4.4c0,1.2,0.4,2.3,1.2,3.2s1.8,1.3,3,1.3s2.1-0.4,3-1.3c0.8-0.9,1.2-1.9,1.2-3.2
				l-0.1-4.3h1.4L86.7,121.5z M81.8,115.2h-1.6v-1.6h1.6V115.2z"/>
			<path class="st0" d="M96.7,120.9c0,1.8-0.5,3.3-1.5,4.6c-1,1.2-2.3,1.9-4,2l-0.6-1.3c1.1,0,2-0.3,2.8-0.9
				c0.7-0.6,1.3-1.4,1.6-2.4h-1.9c-1,0-1.8-0.4-2.4-1.1s-0.9-1.7-0.9-2.7c0-1.4,0.5-2.4,1.3-3.1c0.7-0.6,1.4-0.8,2.3-0.8
				c2.2,0,3.3,1.1,3.3,3.3V120.9z M95.3,121.5l0-3.5c0-1.2-0.6-1.9-1.7-1.9c-0.6,0-1,0.2-1.4,0.7c-0.4,0.5-0.7,1.2-0.7,2.2
				c0,1.4,0.8,2.5,2,2.5H95.3z"/>
			<path class="st0" d="M107.3,122.9h-7.6l0.4-1.4h5.8c0-1.4-0.4-2.6-1-3.6c-0.6-1-1.2-1.4-1.9-1.4v-1.3c1.2,0,2.2,0.6,3,1.9
				C106.9,118.4,107.3,120.4,107.3,122.9z"/>
		</g>
	</g>
</g>
</svg>
